<?xml version="1.0" encoding="UTF-8" standalone="no"?>
<svg
   xmlns:dc="http://purl.org/dc/elements/1.1/"
   xmlns:cc="http://creativecommons.org/ns#"
   xmlns:rdf="http://www.w3.org/1999/02/22-rdf-syntax-ns#"
   xmlns:svg="http://www.w3.org/2000/svg"
   xmlns="http://www.w3.org/2000/svg"
   xmlns:sodipodi="http://sodipodi.sourceforge.net/DTD/sodipodi-0.dtd"
   xmlns:inkscape="http://www.inkscape.org/namespaces/inkscape"
   version="1.1"
   x="0"
   y="0"
   width="473.29001"
   height="541.5"
   viewBox="0 0 473.29002 541.50002"
   id="svg36"
   sodipodi:docname="pytest.svg"
   inkscape:version="1.0 (4035a4fb49, 2020-05-01)">
  <metadata
     id="metadata42">
    <rdf:RDF>
      <cc:Work
         rdf:about="">
        <dc:format>image/svg+xml</dc:format>
        <dc:type
           rdf:resource="http://purl.org/dc/dcmitype/StillImage" />
        <dc:title></dc:title>
      </cc:Work>
    </rdf:RDF>
  </metadata>
  <defs
     id="defs40" />
  <sodipodi:namedview
     inkscape:document-rotation="0"
     pagecolor="#ffffff"
     bordercolor="#666666"
     borderopacity="1"
     objecttolerance="10"
     gridtolerance="10"
     guidetolerance="10"
     inkscape:pageopacity="0"
     inkscape:pageshadow="2"
     inkscape:window-width="3840"
     inkscape:window-height="2160"
     id="namedview38"
     showgrid="false"
     fit-margin-top="0"
     fit-margin-left="0"
     fit-margin-right="0"
     fit-margin-bottom="0"
     inkscape:zoom="0.55933333"
     inkscape:cx="-698.00762"
     inkscape:cy="579"
     inkscape:window-x="0"
     inkscape:window-y="0"
     inkscape:window-maximized="0"
     inkscape:current-layer="svg36" />
  <g
     transform="translate(-500.451,-171)"
     id="graphics">
    <path
       id="horizontal_bar"
       fill="#696969"
       d="m 521.576,213.75 h 431.04 c 11.667,0 21.125,9.458 21.125,21.125 v 0 c 0,11.667 -9.458,21.125 -21.125,21.125 h -431.04 c -11.667,0 -21.125,-9.458 -21.125,-21.125 v 0 c 0,-11.667 9.458,-21.125 21.125,-21.125 z" />
    <g
       id="top_bars">
      <path
         id="path3"
         fill="#009fe3"
         d="M 525.333,171 H 612 v 20 h -86.667 z" />
      <path
         id="path5"
         fill="#c7d302"
         d="m 638.667,171 h 86.666 v 20 h -86.666 z" />
      <path
         id="path7"
         fill="#f07e16"
         d="m 750.5,171 h 86.667 v 20 H 750.5 Z" />
      <path
         id="path9"
         fill="#df2815"
         d="m 861.861,171 h 86.667 v 20 h -86.667 z" />
    </g>
    <g
       id="bottom_bars">
      <path
         id="path12"
         fill="#df2815"
         d="m 861.861,278 h 86.667 v 146.5 h -86.667 z" />
      <path
         id="path14"
         fill="#f07e16"
         d="m 750.5,278 h 86.828 V 516 H 750.5 Z" />
      <path
         id="path16"
         fill="#c7d302"
         d="m 638.667,278 h 86.661 v 356.5 h -86.661 z" />
      <path
         id="path18"
         fill="#009fe3"
         d="M 525.333,278 H 612 v 434.5 h -86.667 z" />
    </g>
  </g>
</svg>
